<svg xmlns="http://www.w3.org/2000/svg" viewBox="0 0 24 24" fill="#3178C6">
  <path d="M1.125 0C.502 0 0 .502 0 1.125v21.75C0 23.498.502 24 1.125 24h21.75c.623 0 1.125-.502 1.125-1.125V1.125C24 .502 23.498 0 22.875 0zm17.363 9.75c.61 0 1.154.037 1.627.111a6.38 6.38 0 0 1 1.306.34v2.458a3.95 3.95 0 0 0-.643-.361 5.093 5.093 0 0 0-.717-.26 5.453 5.453 0 0 0-1.426-.2c-.3 0-.573.028-.819.086a2.1 2.1 0 0 0-.623.242c-.16.104-.284.228-.372.372a.888.888 0 0 0-.137.49c0 .196.053.373.156.529.104.156.252.304.444.444s.423.276.696.41c.273.135.582.274.926.416.47.21.892.444 1.266.702.374.258.695.55.963.874.268.325.472.69.613 1.093.142.403.213.85.213 1.344a4.033 4.033 0 0 1-.648 2.18 3.868 3.868 0 0 1-1.719 1.43 5.61 5.61 0 0 1-2.502.55 6.96 6.96 0 0 1-1.426-.15 4.627 4.627 0 0 1-1.204-.45v-2.63a4.033 4.033 0 0 0 1.79.48 4.28 4.28 0 0 0 1.07-.13c.31-.09.576-.217.799-.38.223-.164.39-.36.503-.59a1.66 1.66 0 0 0 .18-.78 1.52 1.52 0 0 0-.14-.69 1.71 1.71 0 0 0-.41-.55 2.48 2.48 0 0 0-.65-.45 4.586 4.586 0 0 0-.91-.45l-1.013-.45c-.3-.13-.572-.28-.817-.45a3.302 3.302 0 0 1-.656-.6 2.71 2.71 0 0 1-.43-.78 3.033 3.033 0 0 1-.15-1.02c0-.49.09-.94.27-1.35.18-.41.435-.77.765-1.08.33-.31.725-.555 1.185-.735.46-.18.965-.27 1.515-.27zm-15.113.188h9.563v2.166H9.506v9.646H6.789v-9.646H3.375z"/>
</svg> 